<mxfile host="app.diagrams.net" modified="2021-09-16T23:01:31.511Z" agent="5.0 (Windows NT 10.0; Win64; x64) AppleWebKit/537.36 (KHTML, like Gecko) Chrome/91.0.4472.164 Safari/537.36" etag="8XRZihzlHMWhKSECtmKk" version="15.2.5" type="github">
  <diagram id="VVrxlKik7NiQmj7iwLq1" name="Page-1">
    <mxGraphModel dx="782" dy="468" grid="1" gridSize="10" guides="1" tooltips="1" connect="1" arrows="1" fold="1" page="1" pageScale="1" pageWidth="1169" pageHeight="827" math="0" shadow="0">
      <root>
        <mxCell id="0" />
        <mxCell id="1" parent="0" />
        <mxCell id="KRuAcxnMINnG3nQM-tGt-1" value="智慧餐厅智能结算系统" style="whiteSpace=wrap;html=1;aspect=fixed;fontSize=14;spacingTop=0;spacing=6;" vertex="1" parent="1">
          <mxGeometry x="310" y="180" width="100" height="100" as="geometry" />
        </mxCell>
        <mxCell id="KRuAcxnMINnG3nQM-tGt-2" value="员工" style="shape=umlActor;verticalLabelPosition=bottom;verticalAlign=top;html=1;fontSize=14;" vertex="1" parent="1">
          <mxGeometry x="150" y="90" width="30" height="60" as="geometry" />
        </mxCell>
        <mxCell id="KRuAcxnMINnG3nQM-tGt-3" value="餐厅工作人员" style="shape=umlActor;verticalLabelPosition=bottom;verticalAlign=top;html=1;fontSize=14;" vertex="1" parent="1">
          <mxGeometry x="150" y="200" width="30" height="60" as="geometry" />
        </mxCell>
        <mxCell id="KRuAcxnMINnG3nQM-tGt-4" value="系统管理员" style="shape=umlActor;verticalLabelPosition=bottom;verticalAlign=top;html=1;fontSize=14;" vertex="1" parent="1">
          <mxGeometry x="150" y="330" width="30" height="60" as="geometry" />
        </mxCell>
        <mxCell id="KRuAcxnMINnG3nQM-tGt-9" value="" style="group" vertex="1" connectable="0" parent="1">
          <mxGeometry x="500" y="150" width="125" height="40" as="geometry" />
        </mxCell>
        <mxCell id="KRuAcxnMINnG3nQM-tGt-5" value="" style="rounded=0;whiteSpace=wrap;html=1;fontSize=14;" vertex="1" parent="KRuAcxnMINnG3nQM-tGt-9">
          <mxGeometry width="125" height="40" as="geometry" />
        </mxCell>
        <mxCell id="KRuAcxnMINnG3nQM-tGt-8" value="消费系统" style="rounded=0;whiteSpace=wrap;html=1;fontSize=14;" vertex="1" parent="KRuAcxnMINnG3nQM-tGt-9">
          <mxGeometry x="8.75" width="107.5" height="40" as="geometry" />
        </mxCell>
        <mxCell id="KRuAcxnMINnG3nQM-tGt-10" value="" style="group" vertex="1" connectable="0" parent="1">
          <mxGeometry x="500" y="270" width="125" height="40" as="geometry" />
        </mxCell>
        <mxCell id="KRuAcxnMINnG3nQM-tGt-11" value="" style="rounded=0;whiteSpace=wrap;html=1;fontSize=14;" vertex="1" parent="KRuAcxnMINnG3nQM-tGt-10">
          <mxGeometry width="125" height="40" as="geometry" />
        </mxCell>
        <mxCell id="KRuAcxnMINnG3nQM-tGt-12" value="HRM系统" style="rounded=0;whiteSpace=wrap;html=1;fontSize=14;" vertex="1" parent="KRuAcxnMINnG3nQM-tGt-10">
          <mxGeometry x="8.75" width="107.5" height="40" as="geometry" />
        </mxCell>
        <mxCell id="KRuAcxnMINnG3nQM-tGt-21" value="" style="endArrow=none;html=1;fontSize=14;entryX=0;entryY=0.5;entryDx=0;entryDy=0;" edge="1" parent="1" target="KRuAcxnMINnG3nQM-tGt-1">
          <mxGeometry width="50" height="50" relative="1" as="geometry">
            <mxPoint x="180" y="130" as="sourcePoint" />
            <mxPoint x="230" y="80" as="targetPoint" />
          </mxGeometry>
        </mxCell>
        <mxCell id="KRuAcxnMINnG3nQM-tGt-22" value="" style="endArrow=none;html=1;fontSize=14;entryX=0;entryY=0.5;entryDx=0;entryDy=0;" edge="1" parent="1" target="KRuAcxnMINnG3nQM-tGt-1">
          <mxGeometry width="50" height="50" relative="1" as="geometry">
            <mxPoint x="180" y="230" as="sourcePoint" />
            <mxPoint x="230" y="190" as="targetPoint" />
          </mxGeometry>
        </mxCell>
        <mxCell id="KRuAcxnMINnG3nQM-tGt-23" value="" style="endArrow=none;html=1;fontSize=14;entryX=0;entryY=0.5;entryDx=0;entryDy=0;exitX=1;exitY=0.5;exitDx=0;exitDy=0;" edge="1" parent="1" source="KRuAcxnMINnG3nQM-tGt-1" target="KRuAcxnMINnG3nQM-tGt-5">
          <mxGeometry width="50" height="50" relative="1" as="geometry">
            <mxPoint x="420" y="210" as="sourcePoint" />
            <mxPoint x="470" y="160" as="targetPoint" />
          </mxGeometry>
        </mxCell>
        <mxCell id="KRuAcxnMINnG3nQM-tGt-24" value="" style="endArrow=none;html=1;fontSize=14;entryX=0;entryY=0.5;entryDx=0;entryDy=0;" edge="1" parent="1" target="KRuAcxnMINnG3nQM-tGt-1">
          <mxGeometry width="50" height="50" relative="1" as="geometry">
            <mxPoint x="180" y="360" as="sourcePoint" />
            <mxPoint x="320" y="200" as="targetPoint" />
          </mxGeometry>
        </mxCell>
        <mxCell id="KRuAcxnMINnG3nQM-tGt-25" value="" style="endArrow=none;html=1;fontSize=14;entryX=0;entryY=0.5;entryDx=0;entryDy=0;exitX=1;exitY=0.5;exitDx=0;exitDy=0;" edge="1" parent="1" source="KRuAcxnMINnG3nQM-tGt-1" target="KRuAcxnMINnG3nQM-tGt-11">
          <mxGeometry width="50" height="50" relative="1" as="geometry">
            <mxPoint x="420" y="200" as="sourcePoint" />
            <mxPoint x="470" y="150" as="targetPoint" />
          </mxGeometry>
        </mxCell>
      </root>
    </mxGraphModel>
  </diagram>
</mxfile>
